<?xml version="1.0" encoding="utf-8"?>
<!-- Generator: Adobe Illustrator 16.0.4, SVG Export Plug-In . SVG Version: 6.00 Build 0)  -->
<!DOCTYPE svg PUBLIC "-//W3C//DTD SVG 1.1//EN" "http://www.w3.org/Graphics/SVG/1.1/DTD/svg11.dtd">
<svg version="1.1" id="Layer_1" xmlns="http://www.w3.org/2000/svg" xmlns:xlink="http://www.w3.org/1999/xlink" x="0px" y="0px"
	 width="360px" height="288px" viewBox="0 0 360 288" enable-background="new 0 0 360 288" xml:space="preserve">
<rect fill="#00202D" width="360" height="288"/>
<path fill="#23B0E6" d="M256,99.544c-1.574,0-3.01,0.594-4.102,1.564l-35.896-23.386c0.191-0.594,0.295-1.228,0.295-1.886
	c0-3.419-2.773-6.192-6.193-6.192c-1.99,0-3.76,0.945-4.895,2.407l-18.902-7.774c0.027-0.249,0.051-0.499,0.051-0.755
	c0-3.42-2.775-6.192-6.194-6.192c-3.419,0-6.192,2.772-6.192,6.192c0,0.258,0.021,0.511,0.052,0.76l-18.819,7.764
	c-1.133-1.459-2.898-2.401-4.888-2.401c-3.42,0-6.192,2.773-6.192,6.192c0,0.649,0.101,1.273,0.286,1.861l-36.289,23.427
	c-1.095-0.979-2.536-1.581-4.122-1.581c-3.42,0-6.192,2.773-6.192,6.193c0,3.419,2.772,6.191,6.192,6.191
	c1.588,0,3.031-0.604,4.126-1.583l36.283,23.373c-0.184,0.586-0.284,1.209-0.284,1.857c0,3.419,2.772,6.191,6.192,6.191
	c1.959,0,3.702-0.911,4.836-2.331l18.867,7.68c-0.029,0.24-0.048,0.482-0.048,0.73c0,3.422,2.773,6.193,6.192,6.193
	c3.418,0,6.194-2.771,6.194-6.193c0-0.25-0.02-0.496-0.051-0.74l18.977-7.757c1.131,1.469,2.902,2.418,4.9,2.418
	c3.42,0,6.193-2.772,6.193-6.191c0-0.659-0.107-1.291-0.295-1.887l35.812-23.325c1.094,0.969,2.531,1.564,4.105,1.564
	c3.42,0,6.191-2.772,6.191-6.191C262.191,102.318,259.42,99.544,256,99.544z M250.037,104.083H228.23
	c-0.727-2.616-3.117-4.539-5.963-4.539c-0.25,0-0.492,0.019-0.732,0.048c0,0-7.438-19.029-7.328-19.126
	C214.207,80.466,250.059,104.005,250.037,104.083z M207.008,81.195c0.912,0.527,1.969,0.835,3.096,0.835
	c0.248,0,0.49-0.019,0.73-0.047l7.666,18.847c-1.051,0.808-1.832,1.941-2.193,3.254h-17.764c-0.332-3.875-1.838-7.415-4.178-10.246
	L207.008,81.195z M181.803,69.489c1.311-0.359,2.447-1.136,3.254-2.181l18.904,7.775c-0.027,0.247-0.051,0.498-0.051,0.754
	c0,1.1,0.291,2.132,0.795,3.026l-12.648,12.646c-2.818-2.4-6.357-3.979-10.254-4.352V69.489z M156.456,75.077l18.819-7.764
	c0.809,1.042,1.942,1.816,3.25,2.175v17.653c-3.941,0.31-7.54,1.832-10.41,4.216L155.68,78.92c0.522-0.909,0.827-1.959,0.827-3.083
	C156.507,75.579,156.488,75.327,156.456,75.077z M150.316,82.03c1.104,0,2.14-0.294,3.037-0.8l12.438,12.438
	c-2.429,2.869-3.998,6.479-4.331,10.445h-17.759c-0.344-1.265-1.072-2.37-2.06-3.176l7.893-18.962
	C149.792,82.007,150.051,82.03,150.316,82.03z M146.194,80.449c0.103,0.092-7.553,19.17-7.553,19.17
	c-0.297-0.044-0.6-0.074-0.909-0.074c-2.856,0-5.255,1.938-5.969,4.568l-21.795,0.001
	C109.948,104.034,146.194,80.449,146.194,80.449z M109.907,107.594c0.021-0.066,21.863-0.204,21.863-0.204
	c0.726,2.616,3.116,4.539,5.962,4.539c0.312,0,0.614-0.031,0.913-0.075c0,0,7.647,19.022,7.544,19.113L109.907,107.594z
	 M153.373,130.195c-0.903-0.514-1.944-0.811-3.057-0.811c-0.267,0-0.526,0.021-0.784,0.055l-7.887-18.905
	c0.979-0.799,1.703-1.892,2.049-3.144h17.773c0.357,3.934,1.938,7.508,4.358,10.353L153.373,130.195z M178.525,141.884
	c-1.317,0.36-2.457,1.144-3.268,2.197l-18.814-7.659c0.038-0.278,0.064-0.56,0.064-0.846c0-1.116-0.299-2.16-0.815-3.065
	l12.461-12.461c2.862,2.364,6.448,3.873,10.372,4.183V141.884z M180,111.878c-3.42,0-6.192-2.773-6.192-6.192
	c0-3.42,2.772-6.192,6.192-6.192c3.42,0,6.192,2.772,6.192,6.192C186.191,109.105,183.42,111.878,180,111.878z M204.041,136.317
	l-18.977,7.757c-0.811-1.05-1.949-1.829-3.262-2.191v-17.666c3.879-0.372,7.402-1.937,10.219-4.319l12.723,12.721
	c-0.479,0.88-0.752,1.888-0.752,2.959C203.992,135.827,204.012,136.073,204.041,136.317z M210.184,129.384
	c-1.158,0-2.236,0.323-3.162,0.877l-12.689-12.688c2.344-2.821,3.861-6.348,4.207-10.213h17.758c0.361,1.33,1.15,2.479,2.213,3.292
	l-7.592,18.779C210.676,129.403,210.434,129.384,210.184,129.384z M214.289,130.947c-0.109-0.096,7.258-19.062,7.258-19.062
	c0.236,0.026,0.475,0.045,0.721,0.045c2.857,0,5.256-1.938,5.969-4.569c0,0,21.838,0.176,21.865,0.261L214.289,130.947z"/>
<g>
	<path fill="#FFFFFF" d="M87.285,217.971c1.245-1.059,1.85-2.291,1.85-3.764v-4.992c0-1.475-0.595-2.709-1.823-3.768
		c-1.229-1.076-2.757-1.615-4.548-1.615H69.119c-0.879,0-1.618-0.244-2.195-0.719c-0.609-0.551-0.913-1.219-0.913-2V198.1
		c0-0.805,0.294-1.467,0.874-1.961c0.597-0.504,1.349-0.762,2.234-0.762H86.57v-3.428H68.22c-0.028-0.002-0.065-0.002-0.104-0.002
		c-1.71,0-3.193,0.535-4.417,1.586c-1.243,1.066-1.847,2.307-1.847,3.799v4.389c0,1.469,0.592,2.705,1.815,3.764
		c1.268,1.074,2.802,1.613,4.552,1.613h13.676c0.93,0,1.672,0.25,2.21,0.734c0.57,0.465,0.867,1.129,0.867,1.955v3.65
		c0.021,0.777-0.272,1.443-0.874,1.969c-0.551,0.5-1.306,0.764-2.235,0.764H63.13v3.385h19.633
		C84.56,219.555,86.038,219.037,87.285,217.971z"/>
	<path fill="#FFFFFF" d="M124.06,228.582c1.556-1.393,2.342-3.08,2.342-5.023v-31.609h-4.195v23.445
		c0,0.266-0.216,0.482-0.481,0.482h-14.729c-1.281,0-2.368-0.451-3.225-1.336c-0.861-0.926-1.294-2.004-1.294-3.215v-19.377h-4.188
		v20.496c0,1.945,0.754,3.58,2.306,4.998c1.567,1.4,3.482,2.111,5.696,2.111h15.435c0.266,0,0.481,0.217,0.481,0.482v2.402
		c0,1.207-0.432,2.287-1.277,3.209c-0.867,0.912-1.956,1.369-3.239,1.369h-16.812v3.652h17.52
		C120.617,230.67,122.521,229.969,124.06,228.582z"/>
	<path fill="#FFFFFF" d="M137.973,184.189c-1.627,1.631-2.416,3.539-2.416,5.844v21.293c0,2.25,0.813,4.199,2.419,5.805
		c1.653,1.631,3.563,2.424,5.84,2.424h22.578c2.273,0,4.239-0.803,5.842-2.389c1.629-1.625,2.451-3.59,2.451-5.84v-12.137h-13.734
		v3.807h8.87c0.267,0,0.481,0.215,0.481,0.484v7.111c0.02,1.42-0.469,2.648-1.453,3.637c-0.989,0.988-2.234,1.486-3.706,1.486
		h-20.08c-1.443,0-2.677-0.49-3.666-1.455c-0.945-0.965-1.435-2.193-1.459-3.658v-19.898c0.024-1.496,0.514-2.725,1.453-3.668
		c0.971-0.971,2.179-1.461,3.59-1.461c0.032,0,0.06,0,0.088,0h26.928v-3.807h-28.183
		C141.54,181.768,139.629,182.559,137.973,184.189z"/>
	<rect x="183.84" y="179.201" fill="#FFFFFF" width="4.162" height="40.354"/>
	<path fill="#FFFFFF" d="M197.156,212.445c0,1.945,0.758,3.58,2.307,4.998c1.568,1.4,3.482,2.111,5.695,2.111h20.113v-27.605
		h-20.113c-0.031,0-0.064-0.002-0.1-0.002c-2.182,0-4,0.688-5.564,2.094c-1.57,1.389-2.338,3.027-2.338,5.018V212.445z
		 M201.35,200.18c0.023-1.289,0.504-2.375,1.438-3.236c0.965-0.854,2.162-1.283,3.559-1.283h14.252c0.266,0,0.482,0.217,0.482,0.482
		v19.252c0,0.266-0.217,0.482-0.482,0.482h-14.252c-1.396,0-2.588-0.43-3.551-1.273c-0.941-0.869-1.422-1.955-1.445-3.236V200.18z"
		/>
	<path fill="#FFFFFF" d="M259.861,217.971c1.246-1.059,1.85-2.291,1.85-3.764v-4.992c0-1.475-0.594-2.709-1.824-3.768
		c-1.227-1.076-2.756-1.615-4.547-1.615h-13.645c-0.881,0-1.619-0.24-2.197-0.715c-0.609-0.557-0.914-1.225-0.914-2.004V198.1
		c0-0.799,0.295-1.461,0.875-1.961c0.598-0.504,1.348-0.762,2.236-0.762h17.451v-3.428h-18.35c-0.014-0.002-0.064-0.002-0.104-0.002
		c-1.711,0-3.193,0.535-4.416,1.586c-1.242,1.066-1.848,2.307-1.848,3.799v4.389c0,1.469,0.592,2.705,1.814,3.764
		c1.27,1.074,2.803,1.613,4.553,1.613h13.676c0.93,0,1.67,0.25,2.209,0.734c0.572,0.465,0.867,1.129,0.867,1.955v3.65
		c0.021,0.777-0.273,1.443-0.873,1.969c-0.551,0.5-1.305,0.764-2.234,0.764h-18.736v3.385h19.635
		C257.135,219.555,258.613,219.037,259.861,217.971z"/>
	<path fill="#FFFFFF" d="M298.146,209.215c0-1.475-0.594-2.709-1.822-3.768c-1.229-1.076-2.76-1.615-4.549-1.615h-13.645
		c-0.879,0-1.617-0.244-2.195-0.719c-0.611-0.551-0.914-1.219-0.914-2V198.1c0-0.805,0.295-1.467,0.875-1.961
		c0.598-0.504,1.35-0.762,2.234-0.762h17.449v-3.428h-18.348c-0.037-0.002-0.066-0.002-0.104-0.002
		c-1.709,0-3.191,0.535-4.416,1.586c-1.244,1.066-1.85,2.307-1.85,3.799v4.389c0,1.469,0.594,2.705,1.818,3.764
		c1.266,1.074,2.803,1.613,4.551,1.613h13.674c0.93,0,1.674,0.25,2.213,0.734c0.568,0.465,0.867,1.129,0.867,1.955v3.65
		c0.021,0.771-0.268,1.439-0.873,1.965c-0.553,0.504-1.307,0.768-2.236,0.768h-18.736v3.385h19.635c1.797,0,3.275-0.518,4.521-1.584
		c1.244-1.059,1.85-2.291,1.85-3.764V209.215z"/>
</g>
</svg>
